REM COMMENT "Generated by IcecastMetadataRecorder https://github.com/eshaz/icecast-metadata-js"
REM BR "16"
REM METAINT "64"
REM DATE "2020-07-29T21:16:11.222Z"
TITLE "isics-all"
FILE "isics-all.mp3" WAVE
  TRACK 1 AUDIO
    TITLE "2020-07-29T21:17:51.350Z TO:1102 Polk County - Westcom Law Enforcement 2 FROM:1373"
    INDEX 01 01:40:10
  TRACK 2 AUDIO
    TITLE "2020-07-29T21:17:53.430Z TO:24631 Dallas County Fire/EMS Operations FROM:2520309"
    INDEX 01 01:42:16
  TRACK 3 AUDIO
    TITLE "2020-07-29T21:17:55.542Z TO:24631 Dallas County Fire/EMS Operations FROM:2520002"
    INDEX 01 01:44:24
  TRACK 4 AUDIO
    TITLE "2020-07-29T21:17:57.622Z TO:1101 Polk County - Westcom Law Enforcement 1 FROM:1381"
    INDEX 01 01:46:30
  TRACK 5 AUDIO
    TITLE "2020-07-29T21:18:01.142Z TO:1101 Polk County - Westcom Law Enforcement 1 FROM:1004"
    INDEX 01 01:49:69
  TRACK 6 AUDIO
    TITLE "2020-07-29T21:18:03.222Z TO:24631 Dallas County Fire/EMS Operations FROM:2520302"
    INDEX 01 01:52:00
  TRACK 7 AUDIO
    TITLE "2020-07-29T21:18:07.446Z TO:7 Polk County - Westcom Law Enforcement 4 FROM:1377"
    INDEX 01 01:56:17
  TRACK 8 AUDIO
    TITLE "2020-07-29T21:18:09.526Z TO:24631 Dallas County Fire/EMS Operations FROM:UNKNOWN"
    INDEX 01 01:58:23
  TRACK 9 AUDIO
    TITLE "2020-07-29T21:18:11.638Z TO:5002 Department of Public Safety - Area A Law 2A - DPS District #1 FROM:10984"
    INDEX 01 02:00:31
  TRACK 10 AUDIO
    TITLE "END"
    INDEX 01 02:13:02